<mxfile host="app.diagrams.net" agent="Mozilla/5.0 (Windows NT 10.0; Win64; x64) AppleWebKit/537.36 (KHTML, like Gecko) Chrome/134.0.0.0 YaBrowser/25.4.0.0 Safari/537.36" version="27.0.6">
  <diagram name="Страница — 1" id="Ft0bSmu-1pVTYISli6we">
    <mxGraphModel dx="906" dy="504" grid="1" gridSize="10" guides="1" tooltips="1" connect="1" arrows="1" fold="1" page="1" pageScale="1" pageWidth="827" pageHeight="1169" math="0" shadow="0">
      <root>
        <mxCell id="0" />
        <mxCell id="1" parent="0" />
        <mxCell id="reSNpYHNvfSVC-RVkPDc-31" style="edgeStyle=orthogonalEdgeStyle;rounded=0;orthogonalLoop=1;jettySize=auto;html=1;entryX=0.5;entryY=0;entryDx=0;entryDy=0;" edge="1" parent="1" source="reSNpYHNvfSVC-RVkPDc-1" target="reSNpYHNvfSVC-RVkPDc-3">
          <mxGeometry relative="1" as="geometry" />
        </mxCell>
        <mxCell id="reSNpYHNvfSVC-RVkPDc-1" value="Начало" style="ellipse;whiteSpace=wrap;html=1;" vertex="1" parent="1">
          <mxGeometry x="375" y="60" width="60" height="40" as="geometry" />
        </mxCell>
        <mxCell id="reSNpYHNvfSVC-RVkPDc-2" value="Конец" style="ellipse;whiteSpace=wrap;html=1;" vertex="1" parent="1">
          <mxGeometry x="371.25" y="525" width="67.5" height="45" as="geometry" />
        </mxCell>
        <mxCell id="reSNpYHNvfSVC-RVkPDc-36" style="edgeStyle=orthogonalEdgeStyle;rounded=0;orthogonalLoop=1;jettySize=auto;html=1;entryX=0.5;entryY=0;entryDx=0;entryDy=0;" edge="1" parent="1" source="reSNpYHNvfSVC-RVkPDc-3" target="reSNpYHNvfSVC-RVkPDc-4">
          <mxGeometry relative="1" as="geometry" />
        </mxCell>
        <mxCell id="reSNpYHNvfSVC-RVkPDc-3" value="Загрузка страницы" style="shape=parallelogram;perimeter=parallelogramPerimeter;whiteSpace=wrap;html=1;fixedSize=1;" vertex="1" parent="1">
          <mxGeometry x="360" y="120" width="90" height="40" as="geometry" />
        </mxCell>
        <mxCell id="reSNpYHNvfSVC-RVkPDc-39" style="edgeStyle=orthogonalEdgeStyle;rounded=0;orthogonalLoop=1;jettySize=auto;html=1;entryX=0.5;entryY=0;entryDx=0;entryDy=0;" edge="1" parent="1" source="reSNpYHNvfSVC-RVkPDc-4" target="reSNpYHNvfSVC-RVkPDc-5">
          <mxGeometry relative="1" as="geometry" />
        </mxCell>
        <mxCell id="reSNpYHNvfSVC-RVkPDc-4" value="&lt;font style=&quot;font-size: 10px;&quot;&gt;Отображение интерфейса&lt;/font&gt;" style="shape=parallelogram;perimeter=parallelogramPerimeter;whiteSpace=wrap;html=1;fixedSize=1;" vertex="1" parent="1">
          <mxGeometry x="360" y="180" width="90" height="40" as="geometry" />
        </mxCell>
        <mxCell id="reSNpYHNvfSVC-RVkPDc-40" style="edgeStyle=orthogonalEdgeStyle;rounded=0;orthogonalLoop=1;jettySize=auto;html=1;entryX=0.5;entryY=0;entryDx=0;entryDy=0;" edge="1" parent="1" source="reSNpYHNvfSVC-RVkPDc-5" target="reSNpYHNvfSVC-RVkPDc-7">
          <mxGeometry relative="1" as="geometry" />
        </mxCell>
        <mxCell id="reSNpYHNvfSVC-RVkPDc-5" value="Получаем текст" style="rounded=0;whiteSpace=wrap;html=1;" vertex="1" parent="1">
          <mxGeometry x="365" y="240" width="80" height="40" as="geometry" />
        </mxCell>
        <mxCell id="reSNpYHNvfSVC-RVkPDc-43" style="edgeStyle=orthogonalEdgeStyle;rounded=0;orthogonalLoop=1;jettySize=auto;html=1;entryX=0;entryY=0.5;entryDx=0;entryDy=0;" edge="1" parent="1" source="reSNpYHNvfSVC-RVkPDc-6" target="reSNpYHNvfSVC-RVkPDc-8">
          <mxGeometry relative="1" as="geometry" />
        </mxCell>
        <mxCell id="reSNpYHNvfSVC-RVkPDc-44" style="edgeStyle=orthogonalEdgeStyle;rounded=0;orthogonalLoop=1;jettySize=auto;html=1;entryX=1;entryY=0.5;entryDx=0;entryDy=0;" edge="1" parent="1" source="reSNpYHNvfSVC-RVkPDc-6" target="reSNpYHNvfSVC-RVkPDc-9">
          <mxGeometry relative="1" as="geometry" />
        </mxCell>
        <mxCell id="reSNpYHNvfSVC-RVkPDc-6" value="&lt;font style=&quot;font-size: 9px;&quot;&gt;Такая буква есть в массиве алфавита&lt;/font&gt;" style="rhombus;whiteSpace=wrap;html=1;" vertex="1" parent="1">
          <mxGeometry x="347.59" y="360" width="114.83" height="80" as="geometry" />
        </mxCell>
        <mxCell id="reSNpYHNvfSVC-RVkPDc-42" style="edgeStyle=orthogonalEdgeStyle;rounded=0;orthogonalLoop=1;jettySize=auto;html=1;entryX=0.5;entryY=0;entryDx=0;entryDy=0;" edge="1" parent="1" source="reSNpYHNvfSVC-RVkPDc-7" target="reSNpYHNvfSVC-RVkPDc-6">
          <mxGeometry relative="1" as="geometry" />
        </mxCell>
        <mxCell id="reSNpYHNvfSVC-RVkPDc-7" value="&lt;font style=&quot;font-size: 8px;&quot;&gt;Переводим букву к нижнему регистру&lt;/font&gt;" style="rounded=0;whiteSpace=wrap;html=1;" vertex="1" parent="1">
          <mxGeometry x="365" y="300" width="80" height="40" as="geometry" />
        </mxCell>
        <mxCell id="reSNpYHNvfSVC-RVkPDc-47" style="edgeStyle=orthogonalEdgeStyle;rounded=0;orthogonalLoop=1;jettySize=auto;html=1;entryX=0.5;entryY=0;entryDx=0;entryDy=0;" edge="1" parent="1" source="reSNpYHNvfSVC-RVkPDc-8" target="reSNpYHNvfSVC-RVkPDc-45">
          <mxGeometry relative="1" as="geometry" />
        </mxCell>
        <mxCell id="reSNpYHNvfSVC-RVkPDc-8" value="&lt;font style=&quot;font-size: 8px;&quot;&gt;Переводим букву на в букву которая будет через 13 после себя возращаем первоначальный регистр и записываем в пустой массив&lt;/font&gt;" style="rounded=0;whiteSpace=wrap;html=1;" vertex="1" parent="1">
          <mxGeometry x="490" y="367.5" width="142.5" height="65" as="geometry" />
        </mxCell>
        <mxCell id="reSNpYHNvfSVC-RVkPDc-46" style="edgeStyle=orthogonalEdgeStyle;rounded=0;orthogonalLoop=1;jettySize=auto;html=1;entryX=0.5;entryY=0;entryDx=0;entryDy=0;" edge="1" parent="1" source="reSNpYHNvfSVC-RVkPDc-9" target="reSNpYHNvfSVC-RVkPDc-25">
          <mxGeometry relative="1" as="geometry" />
        </mxCell>
        <mxCell id="reSNpYHNvfSVC-RVkPDc-9" value="&lt;font style=&quot;font-size: 10px;&quot;&gt;Записываем в новый массив без изменений&lt;/font&gt;" style="rounded=0;whiteSpace=wrap;html=1;" vertex="1" parent="1">
          <mxGeometry x="208.51" y="375" width="110" height="50" as="geometry" />
        </mxCell>
        <mxCell id="reSNpYHNvfSVC-RVkPDc-49" style="edgeStyle=orthogonalEdgeStyle;rounded=0;orthogonalLoop=1;jettySize=auto;html=1;" edge="1" parent="1" source="reSNpYHNvfSVC-RVkPDc-25">
          <mxGeometry relative="1" as="geometry">
            <mxPoint x="400" y="350" as="targetPoint" />
            <Array as="points">
              <mxPoint x="200" y="490" />
              <mxPoint x="200" y="350" />
            </Array>
          </mxGeometry>
        </mxCell>
        <mxCell id="reSNpYHNvfSVC-RVkPDc-51" style="edgeStyle=orthogonalEdgeStyle;rounded=0;orthogonalLoop=1;jettySize=auto;html=1;entryX=0.5;entryY=0;entryDx=0;entryDy=0;" edge="1" parent="1" source="reSNpYHNvfSVC-RVkPDc-25" target="reSNpYHNvfSVC-RVkPDc-2">
          <mxGeometry relative="1" as="geometry" />
        </mxCell>
        <mxCell id="reSNpYHNvfSVC-RVkPDc-25" value="&lt;font style=&quot;font-size: 8px;&quot;&gt;Длинна строки закончилась&lt;/font&gt;" style="rhombus;whiteSpace=wrap;html=1;" vertex="1" parent="1">
          <mxGeometry x="217.02" y="455" width="92.98" height="70" as="geometry" />
        </mxCell>
        <mxCell id="reSNpYHNvfSVC-RVkPDc-48" style="edgeStyle=orthogonalEdgeStyle;rounded=0;orthogonalLoop=1;jettySize=auto;html=1;" edge="1" parent="1" source="reSNpYHNvfSVC-RVkPDc-45">
          <mxGeometry relative="1" as="geometry">
            <mxPoint x="410" y="350" as="targetPoint" />
            <Array as="points">
              <mxPoint x="640" y="490" />
              <mxPoint x="640" y="350" />
            </Array>
          </mxGeometry>
        </mxCell>
        <mxCell id="reSNpYHNvfSVC-RVkPDc-50" style="edgeStyle=orthogonalEdgeStyle;rounded=0;orthogonalLoop=1;jettySize=auto;html=1;entryX=0.5;entryY=0;entryDx=0;entryDy=0;" edge="1" parent="1" source="reSNpYHNvfSVC-RVkPDc-45" target="reSNpYHNvfSVC-RVkPDc-2">
          <mxGeometry relative="1" as="geometry" />
        </mxCell>
        <mxCell id="reSNpYHNvfSVC-RVkPDc-45" value="&lt;font style=&quot;font-size: 8px;&quot;&gt;Длинна строки закончилась&lt;/font&gt;" style="rhombus;whiteSpace=wrap;html=1;" vertex="1" parent="1">
          <mxGeometry x="514.76" y="455" width="92.98" height="70" as="geometry" />
        </mxCell>
      </root>
    </mxGraphModel>
  </diagram>
</mxfile>
